<svg xmlns="http://www.w3.org/2000/svg" width="75" height="28"><path d="M61 0a14 14 0 1 0 14 14A14 14 0 0 0 61 0zm3.311 18.778a2.4 2.4 0 0 1-1.164 1.242 4.63 4.63 0 0 1-2.121.424 4.554 4.554 0 0 1-2.308-.493 2.4 2.4 0 0 1-1.1-1.21 8.055 8.055 0 0 1-.264-2.484v-.979h3.094v2.01a3.243 3.243 0 0 0 .1 1.022.413.413 0 0 0 .425.218.46.46 0 0 0 .474-.276 5.132 5.132 0 0 0 .115-1.439v-.857a2.506 2.506 0 0 0-.161-1.042.8.8 0 0 0-.474-.432 4.926 4.926 0 0 0-1.217-.119v-1.8a6.244 6.244 0 0 0 1.362-.084.6.6 0 0 0 .375-.368 2.524 2.524 0 0 0 .115-.888v-.689a1.8 1.8 0 0 0-.134-.857.461.461 0 0 0-.417-.207.456.456 0 0 0-.44.218 2.3 2.3 0 0 0-.119.93v1.02h-3.094v-1.06a2.9 2.9 0 0 1 .812-2.4 4.252 4.252 0 0 1 2.58-.624 4.012 4.012 0 0 1 3 .865 3.433 3.433 0 0 1 .789 2.4 3 3 0 0 1-.283 1.5 2.53 2.53 0 0 1-1 .846 1.915 1.915 0 0 1 1.049.778 5.69 5.69 0 0 1 .345 2.531 6.194 6.194 0 0 1-.339 2.304z" fill="#a30000"/><path d="M10.864 11.257H6.281V9.851a2.759 2.759 0 0 0-.176-1.254.646.646 0 0 0-.586-.27.746.746 0 0 0-.674.363 2.106 2.106 0 0 0-.229 1.1 3.112 3.112 0 0 0 .258 1.43 3.741 3.741 0 0 0 1.395 1.16 14.089 14.089 0 0 1 4.148 3.211 7.356 7.356 0 0 1 .855 4.043 7.093 7.093 0 0 1-.475 2.988 3.718 3.718 0 0 1-1.832 1.613 7.254 7.254 0 0 1-3.164.652 7.074 7.074 0 0 1-3.381-.75 3.678 3.678 0 0 1-1.834-1.912 9.793 9.793 0 0 1-.433-3.293v-1.245h4.582v2.309a3.039 3.039 0 0 0 .191 1.374.748.748 0 0 0 .686.3.8.8 0 0 0 .734-.383 2.207 2.207 0 0 0 .24-1.148 3.558 3.558 0 0 0-.46-2.191 14.568 14.568 0 0 0-2.305-1.723 22.711 22.711 0 0 1-2.437-1.77 4.14 4.14 0 0 1-.99-1.523 6.7 6.7 0 0 1-.393-2.484 6.893 6.893 0 0 1 .557-3.187 3.746 3.746 0 0 1 1.798-1.574 7.175 7.175 0 0 1 3-.568 7.816 7.816 0 0 1 3.275.621 3.429 3.429 0 0 1 1.795 1.561 8.283 8.283 0 0 1 .439 3.205zm11.895-5.742v3.8h-2.933v15.172h-4.931V9.311h-2.918v-3.8zm1.125 0h8.227v3.8h-3.294v3.6h3.082v3.609h-3.082v4.163h3.621v3.8h-8.555zm9.973 0h4.969a11.665 11.665 0 0 1 3.1.316 3.464 3.464 0 0 1 1.629.914 3.138 3.138 0 0 1 .738 1.447 12.958 12.958 0 0 1 .193 2.631v1.652a6.883 6.883 0 0 1-.375 2.648 2.567 2.567 0 0 1-1.377 1.277 6.514 6.514 0 0 1-2.619.445h-1.326v7.642h-4.933zm4.934 3.246v4.826q.211.012.363.012a1.141 1.141 0 0 0 .943-.334 2.456 2.456 0 0 0 .264-1.389v-1.559a1.828 1.828 0 0 0-.3-1.266 1.912 1.912 0 0 0-1.272-.291z" fill="#a30000"/></svg>