<svg xmlns="http://www.w3.org/2000/svg" width="75" height="28"><path d="M61 0a14 14 0 1 0 14 14A14 14 0 0 0 61 0zm1.975 20.16h-3.096v-6.646a11.669 11.669 0 0 0-.069-1.73.646.646 0 0 0-.379-.44 3.929 3.929 0 0 0-1.382-.149h-.306v-1.45A5.625 5.625 0 0 0 61.15 7.76h1.829z" fill="#a30000"/><path d="M10.864 11.256H6.281V9.85a2.759 2.759 0 0 0-.176-1.254.646.646 0 0 0-.586-.27.746.746 0 0 0-.674.363 2.106 2.106 0 0 0-.229 1.1 3.112 3.112 0 0 0 .258 1.43 3.741 3.741 0 0 0 1.395 1.16 14.089 14.089 0 0 1 4.148 3.211 7.356 7.356 0 0 1 .855 4.043 7.093 7.093 0 0 1-.475 2.988 3.718 3.718 0 0 1-1.832 1.613 7.254 7.254 0 0 1-3.164.652 7.074 7.074 0 0 1-3.381-.75 3.678 3.678 0 0 1-1.834-1.912 9.793 9.793 0 0 1-.433-3.293v-1.245h4.582v2.309a3.039 3.039 0 0 0 .191 1.374.748.748 0 0 0 .686.3.8.8 0 0 0 .734-.383 2.207 2.207 0 0 0 .24-1.148 3.558 3.558 0 0 0-.46-2.191 14.568 14.568 0 0 0-2.305-1.723 22.711 22.711 0 0 1-2.437-1.77 4.14 4.14 0 0 1-.99-1.523 6.7 6.7 0 0 1-.393-2.484A6.893 6.893 0 0 1 .558 7.26a3.746 3.746 0 0 1 1.798-1.574 7.175 7.175 0 0 1 3-.568 7.816 7.816 0 0 1 3.275.621A3.429 3.429 0 0 1 10.426 7.3a8.283 8.283 0 0 1 .439 3.205zm11.895-5.742v3.8h-2.933v15.172h-4.931V9.31h-2.918v-3.8zm1.125 0h8.227v3.8h-3.294v3.6h3.082v3.609h-3.082v4.163h3.621v3.8h-8.555zm9.973 0h4.969a11.665 11.665 0 0 1 3.1.316 3.464 3.464 0 0 1 1.629.914 3.138 3.138 0 0 1 .738 1.447 12.958 12.958 0 0 1 .193 2.631v1.652a6.883 6.883 0 0 1-.375 2.648 2.567 2.567 0 0 1-1.377 1.277 6.514 6.514 0 0 1-2.619.445h-1.326v7.642h-4.933zm4.934 3.246v4.826q.211.012.363.012a1.141 1.141 0 0 0 .943-.334 2.456 2.456 0 0 0 .264-1.389v-1.559a1.828 1.828 0 0 0-.3-1.266 1.912 1.912 0 0 0-1.272-.291z" fill="#a30000"/></svg>